<?xml version="1.0" encoding="UTF-8" standalone="no"?>
<!-- Created with Inkscape (http://www.inkscape.org/) -->
<svg
   xmlns:svg="http://www.w3.org/2000/svg"
   xmlns="http://www.w3.org/2000/svg"
   xmlns:xlink="http://www.w3.org/1999/xlink"
   version="1.0"
   width="48"
   height="48"
   id="svg2327">
  <defs
     id="defs3">
    <linearGradient
       id="linearGradient2541">
      <stop
         id="stop2543"
         style="stop-color:#fee964;stop-opacity:1"
         offset="0" />
      <stop
         id="stop2545"
         style="stop-color:#fee964;stop-opacity:0"
         offset="1" />
    </linearGradient>
    <linearGradient
       id="linearGradient2523">
      <stop
         id="stop2525"
         style="stop-color:#ffffff;stop-opacity:1"
         offset="0" />
      <stop
         id="stop2527"
         style="stop-color:#ffffff;stop-opacity:0"
         offset="1" />
    </linearGradient>
    <linearGradient
       id="linearGradient2329">
      <stop
         id="stop2331"
         style="stop-color:#ffffff;stop-opacity:1"
         offset="0" />
      <stop
         id="stop2333"
         style="stop-color:#ffffff;stop-opacity:0"
         offset="1" />
    </linearGradient>
    <linearGradient
       id="linearGradient2711">
      <stop
         id="stop2713"
         style="stop-color:#909090;stop-opacity:1"
         offset="0" />
      <stop
         id="stop2715"
         style="stop-color:#bebebe;stop-opacity:0"
         offset="1" />
    </linearGradient>
    <linearGradient
       id="linearGradient2701">
      <stop
         id="stop2703"
         style="stop-color:#585956;stop-opacity:1"
         offset="0" />
      <stop
         id="stop2705"
         style="stop-color:#bbbeb8;stop-opacity:1"
         offset="1" />
    </linearGradient>
    <linearGradient
       id="linearGradient2683">
      <stop
         id="stop2685"
         style="stop-color:#000000;stop-opacity:1"
         offset="0" />
      <stop
         id="stop2687"
         style="stop-color:#000000;stop-opacity:0"
         offset="1" />
    </linearGradient>
    <linearGradient
       id="linearGradient2675">
      <stop
         id="stop2677"
         style="stop-color:#5b5b97;stop-opacity:1"
         offset="0" />
      <stop
         id="stop2679"
         style="stop-color:#1b1b43;stop-opacity:1"
         offset="1" />
    </linearGradient>
    <linearGradient
       id="linearGradient2667">
      <stop
         id="stop2669"
         style="stop-color:#ffffff;stop-opacity:1"
         offset="0" />
      <stop
         id="stop2671"
         style="stop-color:#fcfcff;stop-opacity:0"
         offset="1" />
    </linearGradient>
    <linearGradient
       id="linearGradient2454">
      <stop
         id="stop2456"
         style="stop-color:#000000;stop-opacity:1"
         offset="0" />
      <stop
         id="stop2458"
         style="stop-color:#000000;stop-opacity:0"
         offset="1" />
    </linearGradient>
    <linearGradient
       id="linearGradient2415">
      <stop
         id="stop2417"
         style="stop-color:#ffffff;stop-opacity:1"
         offset="0" />
      <stop
         id="stop2419"
         style="stop-color:#ffffff;stop-opacity:0"
         offset="1" />
    </linearGradient>
    <linearGradient
       id="linearGradient2253">
      <stop
         id="stop2255"
         style="stop-color:#8f8f8f;stop-opacity:1"
         offset="0" />
      <stop
         id="stop2257"
         style="stop-color:#494949;stop-opacity:1"
         offset="1" />
    </linearGradient>
    <linearGradient
       id="linearGradient2245">
      <stop
         id="stop2247"
         style="stop-color:#dde1d9;stop-opacity:1"
         offset="0" />
      <stop
         id="stop2249"
         style="stop-color:#cacdc6;stop-opacity:1"
         offset="1" />
    </linearGradient>
    <linearGradient
       x1="10.390738"
       y1="5.3817744"
       x2="32.536823"
       y2="31.246054"
       id="linearGradient1413"
       xlink:href="#linearGradient2253"
       gradientUnits="userSpaceOnUse"
       gradientTransform="scale(1.104397,0.905471)" />
    <linearGradient
       x1="8.1134243"
       y1="88.509071"
       x2="8.1134233"
       y2="100.20015"
       id="linearGradient1411"
       xlink:href="#linearGradient2752"
       gradientUnits="userSpaceOnUse"
       gradientTransform="scale(2.309851,0.432928)" />
    <linearGradient
       x1="8.1134243"
       y1="88.509071"
       x2="8.1134233"
       y2="100.20015"
       id="linearGradient1409"
       xlink:href="#linearGradient2752"
       gradientUnits="userSpaceOnUse"
       gradientTransform="scale(2.309851,0.432928)" />
    <linearGradient
       x1="-23.8857"
       y1="49.953003"
       x2="-23.8857"
       y2="44.878883"
       id="linearGradient2991"
       xlink:href="#linearGradient2985"
       gradientUnits="userSpaceOnUse"
       gradientTransform="scale(1.492875,0.669848)" />
    <linearGradient
       x1="18.316999"
       y1="48.643234"
       x2="18.176752"
       y2="52.536461"
       id="linearGradient2981"
       xlink:href="#linearGradient2245"
       gradientUnits="userSpaceOnUse"
       gradientTransform="scale(1.129863,0.885063)" />
    <linearGradient
       x1="10.390738"
       y1="5.3817744"
       x2="32.536823"
       y2="31.246054"
       id="linearGradient2979"
       xlink:href="#linearGradient2253"
       gradientUnits="userSpaceOnUse"
       gradientTransform="scale(1.104397,0.905471)" />
    <linearGradient
       x1="8.1134243"
       y1="88.509071"
       x2="8.1134233"
       y2="100.20015"
       id="linearGradient2758"
       xlink:href="#linearGradient2752"
       gradientUnits="userSpaceOnUse"
       gradientTransform="scale(2.309851,0.432928)" />
    <linearGradient
       x1="13.62871"
       y1="101.2846"
       x2="8.6485014"
       y2="74.098007"
       id="linearGradient2741"
       xlink:href="#linearGradient2635"
       gradientUnits="userSpaceOnUse"
       gradientTransform="matrix(2.143634,0,0,0.466498,1,-0.508826)" />
    <linearGradient
       x1="34.300991"
       y1="3.9384086"
       x2="35.520542"
       y2="3.8451097"
       id="linearGradient2690"
       xlink:href="#linearGradient2711"
       gradientUnits="userSpaceOnUse" />
    <linearGradient
       x1="34.300991"
       y1="3.9384086"
       x2="35.520542"
       y2="3.8451097"
       id="linearGradient2688"
       xlink:href="#linearGradient2711"
       gradientUnits="userSpaceOnUse" />
    <linearGradient
       x1="34.300991"
       y1="3.9384086"
       x2="35.520542"
       y2="3.8451097"
       id="linearGradient2686"
       xlink:href="#linearGradient2711"
       gradientUnits="userSpaceOnUse" />
    <linearGradient
       x1="34.300991"
       y1="3.9384086"
       x2="35.520542"
       y2="3.8451097"
       id="linearGradient2684"
       xlink:href="#linearGradient2711"
       gradientUnits="userSpaceOnUse" />
    <linearGradient
       x1="34.300991"
       y1="3.9384086"
       x2="35.520542"
       y2="3.8451097"
       id="linearGradient2682"
       xlink:href="#linearGradient2711"
       gradientUnits="userSpaceOnUse" />
    <linearGradient
       x1="12.206709"
       y1="53.535141"
       x2="12.127711"
       y2="64.892525"
       id="linearGradient2680"
       xlink:href="#linearGradient2701"
       gradientUnits="userSpaceOnUse"
       gradientTransform="scale(1.816345,0.550556)" />
    <linearGradient
       x1="3.7069976"
       y1="171.29134"
       x2="3.7069974"
       y2="162.45061"
       id="linearGradient2678"
       xlink:href="#linearGradient2683"
       gradientUnits="userSpaceOnUse"
       gradientTransform="matrix(5.705159,0,0,0.17528,1,-0.679373)" />
    <linearGradient
       x1="19.150396"
       y1="32.622238"
       x2="16.315819"
       y2="8.8666229"
       id="linearGradient2676"
       xlink:href="#linearGradient2675"
       gradientUnits="userSpaceOnUse"
       gradientTransform="matrix(1.174139,0,0,0.945431,0.721825,-1.331524)" />
    <linearGradient
       x1="11.492236"
       y1="1.6537577"
       x2="17.199417"
       y2="26.729263"
       id="linearGradient2673"
       xlink:href="#linearGradient2667"
       gradientUnits="userSpaceOnUse"
       gradientTransform="matrix(1.238977,0,0,0.895955,0.590553,-1.331524)" />
    <radialGradient
       cx="12.57571"
       cy="67.501709"
       r="8.7662792"
       fx="12.57571"
       fy="67.501709"
       id="radialGradient2659"
       xlink:href="#linearGradient2454"
       gradientUnits="userSpaceOnUse"
       gradientTransform="scale(1.925808,0.519262)" />
    <linearGradient
       x1="13.62871"
       y1="101.2846"
       x2="8.6485014"
       y2="74.098007"
       id="linearGradient2672"
       xlink:href="#linearGradient2635"
       gradientUnits="userSpaceOnUse"
       gradientTransform="scale(2.143634,0.466498)" />
    <linearGradient
       x1="10.728384"
       y1="84.029198"
       x2="10.728384"
       y2="92.57093"
       id="linearGradient2653"
       xlink:href="#linearGradient2623"
       gradientUnits="userSpaceOnUse"
       gradientTransform="scale(1.983556,0.504145)" />
    <radialGradient
       cx="12.57571"
       cy="67.501709"
       r="8.7662792"
       fx="12.57571"
       fy="67.501709"
       id="radialGradient2464"
       xlink:href="#linearGradient2454"
       gradientUnits="userSpaceOnUse"
       gradientTransform="scale(1.925808,0.519262)" />
    <radialGradient
       cx="12.57571"
       cy="67.501709"
       r="8.7662792"
       fx="12.57571"
       fy="67.501709"
       id="radialGradient2668"
       xlink:href="#linearGradient2454"
       gradientUnits="userSpaceOnUse"
       gradientTransform="scale(1.925808,0.519262)" />
    <linearGradient
       x1="21.356108"
       y1="30.078255"
       x2="19.994572"
       y2="-1.3221773"
       id="linearGradient2445"
       xlink:href="#linearGradient2379"
       gradientUnits="userSpaceOnUse"
       gradientTransform="matrix(1.02787,0,0,0.822296,1.523986,1.001198)" />
    <linearGradient
       x1="17.698339"
       y1="13.004725"
       x2="34.974548"
       y2="55.200756"
       id="linearGradient2665"
       xlink:href="#linearGradient2415"
       gradientUnits="userSpaceOnUse"
       gradientTransform="matrix(1.108069,0,0,0.902471,1,1)" />
    <linearGradient
       x1="16.119127"
       y1="10.842293"
       x2="27.289009"
       y2="39.03191"
       id="linearGradient2334"
       xlink:href="#linearGradient2328"
       gradientUnits="userSpaceOnUse"
       gradientTransform="matrix(1.289166,0,0,0.922731,-0.789284,-0.50338)" />
    <linearGradient
       x1="16.851954"
       y1="9.323514"
       x2="24.418941"
       y2="53.734985"
       id="linearGradient2313"
       xlink:href="#linearGradient2307"
       gradientUnits="userSpaceOnUse"
       gradientTransform="matrix(1.208393,0,0,0.98441,-0.789284,-0.50338)" />
    <linearGradient
       x1="8.6116238"
       y1="7.2293582"
       x2="34.784473"
       y2="33.339787"
       id="linearGradient2661"
       xlink:href="#linearGradient2245"
       gradientUnits="userSpaceOnUse"
       gradientTransform="matrix(1.129863,0,0,0.885063,-1.625,-1.304372)" />
    <linearGradient
       id="linearGradient2655">
      <stop
         id="stop2657"
         style="stop-color:#dde1d9;stop-opacity:1"
         offset="0" />
      <stop
         id="stop2659"
         style="stop-color:#cacdc6;stop-opacity:1"
         offset="1" />
    </linearGradient>
    <linearGradient
       id="linearGradient2649">
      <stop
         id="stop2651"
         style="stop-color:#8f8f8f;stop-opacity:1"
         offset="0" />
      <stop
         id="stop2653"
         style="stop-color:#494949;stop-opacity:1"
         offset="1" />
    </linearGradient>
    <linearGradient
       id="linearGradient2307">
      <stop
         id="stop2309"
         style="stop-color:#5a7aa4;stop-opacity:1"
         offset="0" />
      <stop
         id="stop2311"
         style="stop-color:#5a7aa4;stop-opacity:0"
         offset="1" />
    </linearGradient>
    <linearGradient
       id="linearGradient2328">
      <stop
         id="stop2330"
         style="stop-color:#ffffff;stop-opacity:1"
         offset="0" />
      <stop
         id="stop2332"
         style="stop-color:#ffffff;stop-opacity:0"
         offset="1" />
    </linearGradient>
    <linearGradient
       id="linearGradient2379">
      <stop
         id="stop2381"
         style="stop-color:#1a4876;stop-opacity:1"
         offset="0" />
      <stop
         id="stop2383"
         style="stop-color:#3f54a3;stop-opacity:0"
         offset="1" />
    </linearGradient>
    <linearGradient
       id="linearGradient2623">
      <stop
         id="stop2625"
         style="stop-color:#dfdfde;stop-opacity:1"
         offset="0" />
      <stop
         id="stop2627"
         style="stop-color:#9d9f9a;stop-opacity:1"
         offset="1" />
    </linearGradient>
    <linearGradient
       id="linearGradient2635">
      <stop
         id="stop2637"
         style="stop-color:#f9fff5;stop-opacity:1"
         offset="0" />
      <stop
         id="stop2639"
         style="stop-color:#f9fff5;stop-opacity:0"
         offset="1" />
    </linearGradient>
    <linearGradient
       id="linearGradient2615">
      <stop
         id="stop2617"
         style="stop-color:#ffffff;stop-opacity:1"
         offset="0" />
      <stop
         id="stop2619"
         style="stop-color:#fcfcff;stop-opacity:0"
         offset="1" />
    </linearGradient>
    <linearGradient
       id="linearGradient2609">
      <stop
         id="stop2611"
         style="stop-color:#5b5b97;stop-opacity:1"
         offset="0" />
      <stop
         id="stop2613"
         style="stop-color:#1b1b43;stop-opacity:1"
         offset="1" />
    </linearGradient>
    <linearGradient
       id="linearGradient2691">
      <stop
         id="stop2693"
         style="stop-color:#868686;stop-opacity:1"
         offset="0" />
      <stop
         id="stop2695"
         style="stop-color:#e9e9e9;stop-opacity:1"
         offset="1" />
    </linearGradient>
    <linearGradient
       id="linearGradient2594">
      <stop
         id="stop2596"
         style="stop-color:#585956;stop-opacity:1"
         offset="0" />
      <stop
         id="stop2598"
         style="stop-color:#bbbeb8;stop-opacity:1"
         offset="1" />
    </linearGradient>
    <linearGradient
       id="linearGradient2588">
      <stop
         id="stop2590"
         style="stop-color:#909090;stop-opacity:1"
         offset="0" />
      <stop
         id="stop2592"
         style="stop-color:#bebebe;stop-opacity:0"
         offset="1" />
    </linearGradient>
    <linearGradient
       id="linearGradient2752">
      <stop
         id="stop2754"
         style="stop-color:#9d9d9d;stop-opacity:1"
         offset="0" />
      <stop
         id="stop2756"
         style="stop-color:#b9b9b9;stop-opacity:1"
         offset="1" />
    </linearGradient>
    <linearGradient
       id="linearGradient2985">
      <stop
         id="stop2987"
         style="stop-color:#d8dfd6;stop-opacity:1"
         offset="0" />
      <stop
         id="stop2989"
         style="stop-color:#d8dfd6;stop-opacity:0"
         offset="1" />
    </linearGradient>
    <radialGradient
       cx="12.57571"
       cy="67.501709"
       r="8.7662792"
       fx="12.57571"
       fy="67.501709"
       id="radialGradient2745"
       xlink:href="#linearGradient2454"
       gradientUnits="userSpaceOnUse"
       gradientTransform="scale(1.925808,0.519262)" />
    <linearGradient
       x1="12.206709"
       y1="53.535141"
       x2="12.127711"
       y2="64.892525"
       id="linearGradient2747"
       xlink:href="#linearGradient2701"
       gradientUnits="userSpaceOnUse"
       gradientTransform="matrix(1.816345,0,0,1.278927,2.5,-40.24508)" />
    <linearGradient
       x1="8.6116238"
       y1="7.2293582"
       x2="34.784473"
       y2="33.339787"
       id="linearGradient2749"
       xlink:href="#linearGradient2245"
       gradientUnits="userSpaceOnUse"
       gradientTransform="matrix(1.129863,0,0,0.885063,2.875,1.570628)" />
    <linearGradient
       x1="19.150396"
       y1="32.622238"
       x2="16.315819"
       y2="8.8666229"
       id="linearGradient2751"
       xlink:href="#linearGradient2675"
       gradientUnits="userSpaceOnUse"
       gradientTransform="matrix(1.174139,0,0,0.945431,5.221825,1.543476)" />
    <linearGradient
       x1="3.7069976"
       y1="171.29134"
       x2="3.7069974"
       y2="162.45061"
       id="linearGradient2753"
       xlink:href="#linearGradient2683"
       gradientUnits="userSpaceOnUse"
       gradientTransform="matrix(5.705159,0,0,0.17528,5.5,2.195627)" />
    <linearGradient
       x1="17.698339"
       y1="13.004725"
       x2="34.974548"
       y2="55.200756"
       id="linearGradient2755"
       xlink:href="#linearGradient2415"
       gradientUnits="userSpaceOnUse"
       gradientTransform="matrix(1.108069,0,0,0.902471,5.5,3.875)" />
    <linearGradient
       x1="34.300991"
       y1="3.9384086"
       x2="35.520542"
       y2="3.8451097"
       id="linearGradient2757"
       xlink:href="#linearGradient2711"
       gradientUnits="userSpaceOnUse" />
    <linearGradient
       x1="34.300991"
       y1="3.9384086"
       x2="35.520542"
       y2="3.8451097"
       id="linearGradient2759"
       xlink:href="#linearGradient2711"
       gradientUnits="userSpaceOnUse" />
    <linearGradient
       x1="34.300991"
       y1="3.9384086"
       x2="35.520542"
       y2="3.8451097"
       id="linearGradient2761"
       xlink:href="#linearGradient2711"
       gradientUnits="userSpaceOnUse" />
    <linearGradient
       x1="34.300991"
       y1="3.9384086"
       x2="35.520542"
       y2="3.8451097"
       id="linearGradient2763"
       xlink:href="#linearGradient2711"
       gradientUnits="userSpaceOnUse" />
    <linearGradient
       x1="34.300991"
       y1="3.9384086"
       x2="35.520542"
       y2="3.8451097"
       id="linearGradient2765"
       xlink:href="#linearGradient2711"
       gradientUnits="userSpaceOnUse" />
    <radialGradient
       cx="16.086679"
       cy="13.970486"
       r="1.767767"
       fx="16.086679"
       fy="13.970486"
       id="radialGradient2775"
       xlink:href="#linearGradient2541"
       gradientUnits="userSpaceOnUse" />
    <radialGradient
       cx="13.611806"
       cy="11.584001"
       r="1.8561553"
       fx="13.611806"
       fy="11.584001"
       id="radialGradient2777"
       xlink:href="#linearGradient2523"
       gradientUnits="userSpaceOnUse"
       gradientTransform="matrix(1.952381,0,0,1.952381,-12.96362,-11.03238)" />
    <radialGradient
       cx="16.086679"
       cy="13.970486"
       r="1.767767"
       fx="16.086679"
       fy="13.970486"
       id="radialGradient2785"
       xlink:href="#linearGradient2541"
       gradientUnits="userSpaceOnUse" />
    <radialGradient
       cx="13.611806"
       cy="11.584001"
       r="1.8561553"
       fx="13.611806"
       fy="11.584001"
       id="radialGradient2787"
       xlink:href="#linearGradient2523"
       gradientUnits="userSpaceOnUse"
       gradientTransform="matrix(1.952381,0,0,1.952381,-12.96362,-11.03238)" />
    <radialGradient
       cx="16.086679"
       cy="13.970486"
       r="1.767767"
       fx="16.086679"
       fy="13.970486"
       id="radialGradient2795"
       xlink:href="#linearGradient2541"
       gradientUnits="userSpaceOnUse" />
    <radialGradient
       cx="13.611806"
       cy="11.584001"
       r="1.8561553"
       fx="13.611806"
       fy="11.584001"
       id="radialGradient2797"
       xlink:href="#linearGradient2523"
       gradientUnits="userSpaceOnUse"
       gradientTransform="matrix(1.952381,0,0,1.952381,-12.96362,-11.03238)" />
    <radialGradient
       cx="16.086679"
       cy="13.970486"
       r="1.767767"
       fx="16.086679"
       fy="13.970486"
       id="radialGradient2805"
       xlink:href="#linearGradient2541"
       gradientUnits="userSpaceOnUse" />
    <radialGradient
       cx="13.611806"
       cy="11.584001"
       r="1.8561553"
       fx="13.611806"
       fy="11.584001"
       id="radialGradient2807"
       xlink:href="#linearGradient2523"
       gradientUnits="userSpaceOnUse"
       gradientTransform="matrix(1.952381,0,0,1.952381,-12.96362,-11.03238)" />
  </defs>
  <g
     id="layer1">
    <g
       transform="translate(-0.369636,8.3408e-2)"
       id="g2700">
      <path
         d="M 41.10058,35.051105 A 16.882174,4.552 0 1 1 7.3362331,35.051105 A 16.882174,4.552 0 1 1 41.10058,35.051105 z"
         transform="matrix(1,0,0,1.368932,-1.978553,-13.61713)"
         id="path2702"
         style="fill:url(#radialGradient2745);fill-opacity:1;fill-rule:evenodd;stroke:none;stroke-width:1;stroke-linecap:round;stroke-linejoin:miter;marker:none;marker-start:none;marker-mid:none;marker-end:none;stroke-miterlimit:4;stroke-dashoffset:0;stroke-opacity:0.70063692;visibility:visible;display:inline;overflow:visible" />
      <path
         d="M -26.263968,29.716238 A 9.3944187,3.939595 0 1 1 -45.052805,29.716238 A 9.3944187,3.939595 0 1 1 -26.263968,29.716238 z"
         transform="translate(57.53339,3.203427)"
         id="path2704"
         style="fill:#adb0aa;fill-opacity:1;fill-rule:evenodd;stroke:#4b4d4a;stroke-width:1;stroke-linecap:butt;stroke-linejoin:miter;marker:none;marker-start:none;marker-mid:none;marker-end:none;stroke-miterlimit:4;stroke-dashoffset:0;stroke-opacity:1;visibility:visible;display:inline;overflow:visible" />
      <path
         d="M -26.263968,29.716238 A 9.3944187,3.939595 0 1 1 -45.052805,29.716238 A 9.3944187,3.939595 0 1 1 -26.263968,29.716238 z"
         transform="matrix(0.940273,0,0,0.940273,55.40361,4.271194)"
         id="path2706"
         style="fill:none;fill-opacity:1;fill-rule:evenodd;stroke:#7b7f7a;stroke-width:1;stroke-linecap:butt;stroke-linejoin:miter;marker:none;marker-start:none;marker-mid:none;marker-end:none;stroke-miterlimit:4;stroke-dashoffset:0;stroke-opacity:1;visibility:visible;display:inline;overflow:visible" />
      <path
         d="M -26.263968,29.716238 A 9.3944187,3.939595 0 1 1 -45.052805,29.716238 A 9.3944187,3.939595 0 1 1 -26.263968,29.716238 z"
         transform="matrix(0.940273,0,0,0.940273,55.40361,3.521194)"
         id="path2708"
         style="fill:none;fill-opacity:1;fill-rule:evenodd;stroke:url(#linearGradient2991);stroke-width:0.68065339;stroke-linecap:butt;stroke-linejoin:miter;marker:none;marker-start:none;marker-mid:none;marker-end:none;stroke-miterlimit:4;stroke-dashoffset:0;stroke-opacity:1;visibility:visible;display:inline;overflow:visible" />
      <path
         d="M 25.6875,28.766243 L 25.625,29.766243 C 25.625,29.766243 29.949108,33.365409 34.625,33.96875 C 36.962946,34.27042 39.378675,34.671162 41.375,35.15625 C 43.371325,35.641338 44.963356,36.275856 45.5,36.8125 C 45.810411,37.122911 45.951063,37.386139 46,37.59375 C 46.048937,37.801361 46.038217,37.948565 45.90625,38.15625 C 45.642317,38.57162 44.826393,39.123902 43.4375,39.5625 C 40.659715,40.439695 35.717076,41 28.875,41 L 28.875,42 C 35.770998,42 40.738665,41.472329 43.71875,40.53125 C 45.208792,40.06071 46.243692,39.515563 46.75,38.71875 C 47.003154,38.320344 47.107321,37.830301 47,37.375 C 46.892679,36.919699 46.615445,36.490445 46.21875,36.09375 C 45.34118,35.21618 43.681912,34.68731 41.625,34.1875 C 39.568088,33.68769 37.109264,33.273171 34.75,32.96875 C 30.031473,32.359908 25.6875,28.766243 25.6875,28.766243 z"
         id="path2411"
         style="fill:#d0d0d0;fill-opacity:1;fill-rule:evenodd;stroke:#979797;stroke-width:0.40000001;stroke-linecap:butt;stroke-linejoin:round;stroke-miterlimit:4;stroke-opacity:1" />
      <path
         d="M 41.10058,35.051105 A 16.882174,4.552 0 1 1 7.3362331,35.051105 A 16.882174,4.552 0 1 1 41.10058,35.051105 z"
         transform="matrix(1,0,0,1.368932,-1.978553,-19.02126)"
         id="path2462"
         style="fill:url(#radialGradient2464);fill-opacity:1;fill-rule:evenodd;stroke:none;stroke-width:1;stroke-linecap:round;stroke-linejoin:miter;marker:none;marker-start:none;marker-mid:none;marker-end:none;stroke-miterlimit:4;stroke-dashoffset:0;stroke-opacity:0.70063692;visibility:visible;display:inline;overflow:visible" />
      <rect
         width="9.0396729"
         height="2.7400389"
         x="17.472397"
         y="30.703611"
         id="rect2712"
         style="fill:url(#linearGradient2747);fill-opacity:1;fill-rule:evenodd;stroke:none;stroke-width:0.60872948;stroke-linecap:butt;stroke-linejoin:miter;marker:none;marker-start:none;marker-mid:none;marker-end:none;stroke-miterlimit:4;stroke-dashoffset:0;stroke-opacity:1;visibility:visible;display:inline;overflow:visible" />
      <path
         d="M 7.0809024,1.6956221 L 36.669097,1.6956221 C 37.580439,1.6956221 38.293244,2.2791039 38.335849,3.0972091 L 39.667893,28.675323 C 39.726102,29.793058 38.766837,30.695628 37.647588,30.695628 L 6.102412,30.695628 C 4.9831629,30.695628 4.023898,29.793058 4.0821068,28.675323 L 5.4141506,3.0972091 C 5.4544343,2.3236745 5.9616533,1.6956221 7.0809024,1.6956221 z"
         id="path2714"
         style="fill:url(#linearGradient2749);fill-opacity:1;fill-rule:evenodd;stroke:url(#linearGradient2979);stroke-width:1;stroke-linecap:butt;stroke-linejoin:miter;marker:none;marker-start:none;marker-mid:none;marker-end:none;stroke-miterlimit:4;stroke-dashoffset:0;stroke-opacity:1;visibility:visible;display:inline;overflow:visible" />
      <path
         d="M 8.4105348,4.3058272 L 7.1683398,26.351144 L 34.818729,26.351144 L 33.483712,4.3992558 L 8.4105348,4.3058272 z"
         id="path2716"
         style="fill:url(#linearGradient2751);fill-opacity:1;fill-rule:evenodd;stroke:#000079;stroke-width:0.5;stroke-linecap:butt;stroke-linejoin:round;stroke-miterlimit:4;stroke-dasharray:none;stroke-opacity:1" />
      <path
         d="M 6.1774331,28.735789 L 37.60591,28.735789"
         id="path2718"
         style="fill:none;fill-opacity:0.75;fill-rule:evenodd;stroke:url(#linearGradient2753);stroke-width:0.99618119;stroke-linecap:round;stroke-linejoin:miter;stroke-miterlimit:4;stroke-opacity:0.24840764" />
      <path
         d="M 6.9145985,2.7063396 L 36.760101,2.6685383 C 37.043798,2.668179 37.319403,2.9057881 37.342206,3.3210821 L 38.704098,28.12433 C 38.762137,29.181361 38.164349,29.910201 37.105727,29.910201 L 6.5817583,29.910201 C 5.5231355,29.910201 4.9887439,29.18141 5.0458869,28.12433 L 6.3699773,3.6301633 C 6.4086732,2.9143326 6.5363627,2.7068187 6.9145985,2.7063396 z"
         id="path2720"
         style="fill:none;fill-opacity:1;fill-rule:evenodd;stroke:url(#linearGradient2755);stroke-width:0.99999964;stroke-linecap:butt;stroke-linejoin:miter;marker:none;marker-start:none;marker-mid:none;marker-end:none;stroke-miterlimit:4;stroke-dashoffset:0;stroke-opacity:0.70063692;visibility:visible;display:inline;overflow:visible" />
      <path
         d="M 8.7115364,4.7463626 L 7.9090069,22.616693 C 18.953645,20.216063 19.33047,12.124494 33.063039,9.4699426 L 32.901567,4.8124267 L 8.7115364,4.7463626 z"
         id="path2722"
         style="opacity:0.53142856;fill:url(#linearGradient2673);fill-opacity:1;fill-rule:evenodd;stroke:none;stroke-width:0.25pt;stroke-linecap:butt;stroke-linejoin:miter;stroke-opacity:1" />
      <path
         d="M 41.10058,35.051105 A 16.882174,4.552 0 1 1 7.3362331,35.051105 A 16.882174,4.552 0 1 1 41.10058,35.051105 z"
         transform="matrix(1.264398,0,0,1.291262,-6.216332,-4.000423)"
         id="path2657"
         style="fill:url(#radialGradient2659);fill-opacity:1;fill-rule:evenodd;stroke:none;stroke-width:1;stroke-linecap:round;stroke-linejoin:miter;marker:none;marker-start:none;marker-mid:none;marker-end:none;stroke-miterlimit:4;stroke-dashoffset:0;stroke-opacity:0.70063692;visibility:visible;display:inline;overflow:visible" />
      <path
         d="M 6.4621839,36.817452 L 37.46459,36.817452 C 38.583839,36.817452 38.441945,37.08889 38.556817,37.430298 L 41.391463,45.855108 C 41.506335,46.196517 41.418485,46.467954 40.299236,46.467954 L 3.6275382,46.467954 C 2.5082891,46.467954 2.4204387,46.196517 2.5353107,45.855108 L 5.3699564,37.430298 C 5.4848284,37.088889 5.3429348,36.817452 6.4621839,36.817452 z"
         id="path2409"
         style="opacity:1;fill:url(#linearGradient2981);fill-opacity:1;fill-rule:evenodd;stroke:url(#linearGradient1413);stroke-width:1;stroke-linecap:butt;stroke-linejoin:miter;marker:none;marker-start:none;marker-mid:none;marker-end:none;stroke-miterlimit:4;stroke-dasharray:none;stroke-dashoffset:0;stroke-opacity:1;visibility:visible;display:inline;overflow:visible" />
      <path
         d="M 6.3916892,38.829113 L 4.6239223,43.955638 L 10.104,43.955638 L 10.63433,41.922706 L 25.483572,41.922706 L 26.033251,43.99782 L 32.201086,43.99782 L 30.521708,38.829113 L 6.3916892,38.829113 z"
         id="path2611"
         style="fill:#7a7d77;fill-opacity:1;fill-rule:evenodd;stroke:none;stroke-width:0.25pt;stroke-linecap:butt;stroke-linejoin:miter;stroke-opacity:1" />
      <path
         d="M 11.076272,42.27626 L 10.63433,43.955639 L 25.395184,43.955639 L 24.953242,42.187872 L 11.076272,42.27626 z"
         id="path2613"
         style="fill:#777874;fill-opacity:1;fill-rule:evenodd;stroke:none;stroke-width:0.25pt;stroke-linecap:butt;stroke-linejoin:miter;stroke-opacity:1" />
      <path
         d="M 37.592776,38.829114 L 39.272155,43.86725 L 33.792077,43.778861 L 32.289475,38.917502 L 37.592776,38.829114 z"
         id="path2619"
         style="fill:#777a75;fill-opacity:1;fill-rule:evenodd;stroke:none;stroke-width:0.25pt;stroke-linecap:butt;stroke-linejoin:miter;marker:none;marker-start:none;marker-mid:none;marker-end:none;stroke-miterlimit:4;stroke-dashoffset:0;stroke-opacity:1;visibility:visible;display:inline;overflow:visible" />
      <path
         d="M 37.592776,38.298786 L 39.272155,43.336922 L 33.792077,43.248533 L 32.289475,38.387174 L 37.592776,38.298786 z"
         id="path2615"
         style="opacity:1;fill:url(#linearGradient2758);fill-opacity:1;fill-rule:evenodd;stroke:none;stroke-width:0.25pt;stroke-linecap:butt;stroke-linejoin:miter;marker:none;marker-start:none;marker-mid:none;marker-end:none;stroke-miterlimit:4;stroke-dasharray:none;stroke-dashoffset:0;stroke-opacity:1;visibility:visible;display:inline;overflow:visible" />
      <path
         d="M 6.3916892,38.210397 L 4.6239223,43.336922 L 10.104,43.336922 L 10.63433,41.30399 L 25.483572,41.30399 L 26.033251,43.379104 L 32.201086,43.379104 L 30.521708,38.210397 L 6.3916892,38.210397 z"
         id="path2617"
         style="fill:url(#linearGradient1411);fill-opacity:1;fill-rule:evenodd;stroke:none;stroke-width:0.25pt;stroke-linecap:butt;stroke-linejoin:miter;stroke-opacity:1" />
      <path
         d="M 11.076272,41.745932 L 10.63433,43.425311 L 25.395184,43.425311 L 24.953242,41.657544 L 11.076272,41.745932 z"
         id="path2621"
         style="opacity:1;fill:url(#linearGradient1409);fill-opacity:1;fill-rule:evenodd;stroke:none;stroke-width:0.25pt;stroke-linecap:butt;stroke-linejoin:miter;marker:none;marker-start:none;marker-mid:none;marker-end:none;stroke-miterlimit:4;stroke-dasharray:none;stroke-dashoffset:0;stroke-opacity:1;visibility:visible;display:inline;overflow:visible" />
      <path
         d="M 6.1278189,37.578116 L 37.953634,37.578116 L 40.590813,45.670679 L 3.3297429,45.670679 L 6.1278189,37.578116 z"
         id="path2631"
         style="fill:none;fill-opacity:1;fill-rule:evenodd;stroke:url(#linearGradient2741);stroke-width:0.5;stroke-linecap:butt;stroke-linejoin:round;marker:none;marker-start:none;marker-mid:none;marker-end:none;stroke-miterlimit:4;stroke-dashoffset:0;stroke-opacity:1;visibility:visible;display:inline;overflow:visible" />
      <path
         d="M 35.620504,3.9384086 A 0.83968931,0.83968931 0 1 1 33.941126,3.9384086 A 0.83968931,0.83968931 0 1 1 35.620504,3.9384086 z"
         transform="matrix(1.331237,0,0,0.658449,-10.41933,2.853866)"
         id="path2733"
         style="fill:url(#linearGradient2757);fill-opacity:1;fill-rule:evenodd;stroke:none;stroke-width:0.5;stroke-linecap:butt;stroke-linejoin:miter;marker:none;marker-start:none;marker-mid:none;marker-end:none;stroke-miterlimit:4;stroke-dashoffset:0;stroke-opacity:1;visibility:visible;display:inline;overflow:visible" />
      <path
         d="M 35.620504,3.9384086 A 0.83968931,0.83968931 0 1 1 33.941126,3.9384086 A 0.83968931,0.83968931 0 1 1 35.620504,3.9384086 z"
         transform="matrix(1.331237,0,0,0.658449,-10.30573,4.959651)"
         id="path2735"
         style="fill:url(#linearGradient2759);fill-opacity:1;fill-rule:evenodd;stroke:none;stroke-width:0.5;stroke-linecap:butt;stroke-linejoin:miter;marker:none;marker-start:none;marker-mid:none;marker-end:none;stroke-miterlimit:4;stroke-dashoffset:0;stroke-opacity:1;visibility:visible;display:inline;overflow:visible" />
      <path
         d="M 35.620504,3.9384086 A 0.83968931,0.83968931 0 1 1 33.941126,3.9384086 A 0.83968931,0.83968931 0 1 1 35.620504,3.9384086 z"
         transform="matrix(1.331237,0,0,0.658449,-10.19213,6.959651)"
         id="path2737"
         style="fill:url(#linearGradient2761);fill-opacity:1;fill-rule:evenodd;stroke:none;stroke-width:0.5;stroke-linecap:butt;stroke-linejoin:miter;marker:none;marker-start:none;marker-mid:none;marker-end:none;stroke-miterlimit:4;stroke-dashoffset:0;stroke-opacity:1;visibility:visible;display:inline;overflow:visible" />
      <path
         d="M 35.620504,3.9384086 A 0.83968931,0.83968931 0 1 1 33.941126,3.9384086 A 0.83968931,0.83968931 0 1 1 35.620504,3.9384086 z"
         transform="matrix(1.331237,0,0,0.658449,-10.07853,8.959651)"
         id="path2739"
         style="fill:url(#linearGradient2763);fill-opacity:1;fill-rule:evenodd;stroke:none;stroke-width:0.5;stroke-linecap:butt;stroke-linejoin:miter;marker:none;marker-start:none;marker-mid:none;marker-end:none;stroke-miterlimit:4;stroke-dashoffset:0;stroke-opacity:1;visibility:visible;display:inline;overflow:visible" />
      <path
         d="M 35.620504,3.9384086 A 0.83968931,0.83968931 0 1 1 33.941126,3.9384086 A 0.83968931,0.83968931 0 1 1 35.620504,3.9384086 z"
         transform="matrix(1.331237,0,0,0.658449,-9.96493,10.95965)"
         id="path2741"
         style="fill:url(#linearGradient2765);fill-opacity:1;fill-rule:evenodd;stroke:none;stroke-width:0.5;stroke-linecap:butt;stroke-linejoin:miter;marker:none;marker-start:none;marker-mid:none;marker-end:none;stroke-miterlimit:4;stroke-dashoffset:0;stroke-opacity:1;visibility:visible;display:inline;overflow:visible" />
      <path
         d="M 20,27.317666 L 20.281716,27.317666 C 20.365481,27.317667 20.429701,27.33633 20.474376,27.373656 C 20.519345,27.41069 20.541829,27.463594 20.54183,27.53237 C 20.541829,27.60144 20.519345,27.654638 20.474376,27.691965 C 20.429701,27.728998 20.365481,27.747515 20.281716,27.747515 L 20.169735,27.747515 L 20.169735,27.975885 L 20,27.975885 L 20,27.317666 M 20.169735,27.440669 L 20.169735,27.624512 L 20.26364,27.624512 C 20.296558,27.624512 20.321982,27.616576 20.339911,27.600705 C 20.357839,27.58454 20.366804,27.561762 20.366804,27.53237 C 20.366804,27.502979 20.357839,27.480348 20.339911,27.464476 C 20.321982,27.448605 20.296558,27.440669 20.26364,27.440669 L 20.169735,27.440669 M 20.961979,27.428765 C 20.91025,27.428766 20.870131,27.44787 20.841621,27.486078 C 20.813112,27.524288 20.798857,27.578074 20.798857,27.647437 C 20.798857,27.716507 20.813112,27.770146 20.841621,27.808355 C 20.870131,27.846564 20.91025,27.865668 20.961979,27.865668 C 21.014001,27.865668 21.054267,27.846564 21.082778,27.808355 C 21.111287,27.770146 21.125541,27.716507 21.125542,27.647437 C 21.125541,27.578074 21.111287,27.524288 21.082778,27.486078 C 21.054267,27.44787 21.014001,27.428766 20.961979,27.428765 M 20.961979,27.305762 C 21.067787,27.305763 21.150671,27.336036 21.21063,27.396582 C 21.270588,27.457128 21.300567,27.540747 21.300568,27.647437 C 21.300567,27.753834 21.270588,27.837305 21.21063,27.897851 C 21.150671,27.958398 21.067787,27.988671 20.961979,27.988671 C 20.856464,27.988671 20.77358,27.958398 20.713328,27.897851 C 20.65337,27.837305 20.623391,27.753834 20.623391,27.647437 C 20.623391,27.540747 20.65337,27.457128 20.713328,27.396582 C 20.77358,27.336036 20.856464,27.305763 20.961979,27.305762 M 21.42842,27.317666 L 21.617994,27.317666 L 21.857387,27.769117 L 21.857387,27.317666 L 22.018305,27.317666 L 22.018305,27.975885 L 21.82873,27.975885 L 21.589338,27.524434 L 21.589338,27.975885 L 21.42842,27.975885 L 21.42842,27.317666 M 22.091489,27.317666 L 22.277095,27.317666 L 22.426991,27.552209 L 22.576887,27.317666 L 22.762935,27.317666 L 22.512079,27.698578 L 22.512079,27.975885 L 22.342344,27.975885 L 22.342344,27.698578 L 22.091489,27.317666"
         id="path2743"
         style="font-size:0.9029026px;font-style:normal;font-variant:normal;font-weight:bold;font-stretch:normal;writing-mode:lr-tb;text-anchor:start;fill:#4a4a4a;fill-opacity:1;stroke:none;stroke-width:1pt;stroke-linecap:butt;stroke-linejoin:miter;stroke-opacity:1;font-family:Bitstream Vera Sans" />
    </g>
    <path
       d="M 28.291981,10.939082 C 29.961431,18.618626 25.00261,23.077812 16.844561,18.612559 C 17.471657,20.96263 19.111198,22.99314 21.596914,23.793627 C 25.485225,25.0458 29.656218,22.906835 30.908391,19.018525 C 31.896134,15.951333 30.718735,12.786903 28.291981,10.939082 z"
       id="path2767"
       style="opacity:1;fill:#fce94f;fill-opacity:1;fill-rule:nonzero;stroke:#edd400;stroke-width:0.99999958;stroke-linecap:butt;stroke-linejoin:miter;marker:none;marker-start:none;marker-mid:none;marker-end:none;stroke-miterlimit:4;stroke-dasharray:none;stroke-dashoffset:0;stroke-opacity:1;visibility:visible;display:inline;overflow:visible" />
    <g
       transform="translate(-2.511138,-2.6267367)"
       id="g2769">
      <path
         d="M 17.854446,13.970486 A 1.767767,1.767767 0 1 1 14.318913,13.970486 A 1.767767,1.767767 0 1 1 17.854446,13.970486 z"
         transform="translate(-2.474874,-2.386485)"
         id="path2771"
         style="opacity:1;fill:url(#radialGradient2775);fill-opacity:1;fill-rule:nonzero;stroke:none;stroke-width:2;stroke-linecap:butt;stroke-linejoin:miter;marker:none;marker-start:none;marker-mid:none;marker-end:none;stroke-miterlimit:4;stroke-dasharray:none;stroke-dashoffset:0;stroke-opacity:1;visibility:visible;display:inline;overflow:visible" />
      <path
         d="M 16.970563,11.584001 L 13.930592,11.85101 L 13.611806,14.942758 L 13.344797,11.902786 L 10.253049,11.584001 L 13.29302,11.316992 L 13.611806,8.2252433 L 13.878815,11.265215 L 16.970563,11.584001 z"
         id="path2773"
         style="opacity:1;fill:url(#radialGradient2777);fill-opacity:1;fill-rule:nonzero;stroke:none;stroke-width:1;stroke-linecap:butt;stroke-linejoin:miter;marker:none;marker-start:none;marker-mid:none;marker-end:none;stroke-miterlimit:4;stroke-dasharray:none;stroke-dashoffset:0;stroke-opacity:1;visibility:visible;display:inline;overflow:visible" />
    </g>
    <g
       transform="matrix(0.631579,0,0,0.631579,9.403069,0.433788)"
       id="g2779">
      <path
         d="M 17.854446,13.970486 A 1.767767,1.767767 0 1 1 14.318913,13.970486 A 1.767767,1.767767 0 1 1 17.854446,13.970486 z"
         transform="translate(-2.474874,-2.386485)"
         id="path2781"
         style="opacity:1;fill:url(#radialGradient2785);fill-opacity:1;fill-rule:nonzero;stroke:none;stroke-width:2;stroke-linecap:butt;stroke-linejoin:miter;marker:none;marker-start:none;marker-mid:none;marker-end:none;stroke-miterlimit:4;stroke-dasharray:none;stroke-dashoffset:0;stroke-opacity:1;visibility:visible;display:inline;overflow:visible" />
      <path
         d="M 16.970563,11.584001 L 13.930592,11.85101 L 13.611806,14.942758 L 13.344797,11.902786 L 10.253049,11.584001 L 13.29302,11.316992 L 13.611806,8.2252433 L 13.878815,11.265215 L 16.970563,11.584001 z"
         id="path2783"
         style="opacity:1;fill:url(#radialGradient2787);fill-opacity:1;fill-rule:nonzero;stroke:none;stroke-width:1;stroke-linecap:butt;stroke-linejoin:miter;marker:none;marker-start:none;marker-mid:none;marker-end:none;stroke-miterlimit:4;stroke-dasharray:none;stroke-dashoffset:0;stroke-opacity:1;visibility:visible;display:inline;overflow:visible" />
    </g>
    <g
       transform="matrix(0.631579,0,0,0.631579,7.153069,5.933788)"
       id="g2789">
      <path
         d="M 17.854446,13.970486 A 1.767767,1.767767 0 1 1 14.318913,13.970486 A 1.767767,1.767767 0 1 1 17.854446,13.970486 z"
         transform="translate(-2.474874,-2.386485)"
         id="path2791"
         style="opacity:1;fill:url(#radialGradient2795);fill-opacity:1;fill-rule:nonzero;stroke:none;stroke-width:2;stroke-linecap:butt;stroke-linejoin:miter;marker:none;marker-start:none;marker-mid:none;marker-end:none;stroke-miterlimit:4;stroke-dasharray:none;stroke-dashoffset:0;stroke-opacity:1;visibility:visible;display:inline;overflow:visible" />
      <path
         d="M 16.970563,11.584001 L 13.930592,11.85101 L 13.611806,14.942758 L 13.344797,11.902786 L 10.253049,11.584001 L 13.29302,11.316992 L 13.611806,8.2252433 L 13.878815,11.265215 L 16.970563,11.584001 z"
         id="path2793"
         style="opacity:1;fill:url(#radialGradient2797);fill-opacity:1;fill-rule:nonzero;stroke:none;stroke-width:1;stroke-linecap:butt;stroke-linejoin:miter;marker:none;marker-start:none;marker-mid:none;marker-end:none;stroke-miterlimit:4;stroke-dasharray:none;stroke-dashoffset:0;stroke-opacity:1;visibility:visible;display:inline;overflow:visible" />
    </g>
    <g
       transform="matrix(0.631579,0,0,0.631579,3.153069,7.933788)"
       id="g2799">
      <path
         d="M 17.854446,13.970486 A 1.767767,1.767767 0 1 1 14.318913,13.970486 A 1.767767,1.767767 0 1 1 17.854446,13.970486 z"
         transform="translate(-2.474874,-2.386485)"
         id="path2801"
         style="opacity:1;fill:url(#radialGradient2805);fill-opacity:1;fill-rule:nonzero;stroke:none;stroke-width:2;stroke-linecap:butt;stroke-linejoin:miter;marker:none;marker-start:none;marker-mid:none;marker-end:none;stroke-miterlimit:4;stroke-dasharray:none;stroke-dashoffset:0;stroke-opacity:1;visibility:visible;display:inline;overflow:visible" />
      <path
         d="M 16.970563,11.584001 L 13.930592,11.85101 L 13.611806,14.942758 L 13.344797,11.902786 L 10.253049,11.584001 L 13.29302,11.316992 L 13.611806,8.2252433 L 13.878815,11.265215 L 16.970563,11.584001 z"
         id="path2803"
         style="opacity:1;fill:url(#radialGradient2807);fill-opacity:1;fill-rule:nonzero;stroke:none;stroke-width:1;stroke-linecap:butt;stroke-linejoin:miter;marker:none;marker-start:none;marker-mid:none;marker-end:none;stroke-miterlimit:4;stroke-dasharray:none;stroke-dashoffset:0;stroke-opacity:1;visibility:visible;display:inline;overflow:visible" />
    </g>
  </g>
</svg>
